<?xml version="1.0" encoding="utf-8"?>
<!-- Generator: Adobe Illustrator 23.0.4, SVG Export Plug-In . SVG Version: 6.00 Build 0)  -->
<svg version="1.1" id="レイヤー_1" xmlns="http://www.w3.org/2000/svg" xmlns:xlink="http://www.w3.org/1999/xlink" x="0px"
	 y="0px" viewBox="0 0 1257.2 250.9" style="enable-background:new 0 0 1257.2 250.9;" xml:space="preserve">
<style type="text/css">
	.st0{clip-path:url(#SVGID_2_);fill:#9696E6;}
	.st1{fill:#485BB3;}
	.st2{fill:#FFFFFF;stroke:#FFFFFF;stroke-miterlimit:10;}
	.st3{fill:#1D2C6A;stroke:#1D2C6A;stroke-width:3.3195;stroke-miterlimit:10;}
	.st4{fill:#1D2C6A;stroke:#1D2C6A;stroke-width:2.0632;stroke-miterlimit:10;}
	.st5{enable-background:new    ;}
	.st6{fill:#FFFFFF;}
	.st7{clip-path:url(#SVGID_4_);fill:#9696E6;}
	.st8{clip-path:url(#SVGID_6_);fill:#9696E6;}
</style>
<g>
	<g>
		<defs>
			<polygon id="SVGID_1_" points="1244.3,246.1 480.5,244.6 596.2,5 1244.3,6.5 			"/>
		</defs>
		<clipPath id="SVGID_2_">
			<use xlink:href="#SVGID_1_"  style="overflow:visible;"/>
		</clipPath>
		<polygon class="st0" points="509.4,186.2 480.5,246.1 1102.3,246.1 1131.3,186.2 		"/>
	</g>
</g>
<polygon class="st1" points="0,4.9 555.5,6.4 439.8,246.1 0,244.6 "/>
<polygon class="st1" points="1257.2,6.4 1141.5,246.1 1257.2,246.1 "/>
<g>
	<path class="st2" d="M33.8,194.9c0-2.3,1.9-4.5,4.7-4.5c2.6,0,3.4,1.5,4.2,3.4c2.9,6.1,11.6,18.6,27.4,18.6
		c12.9,0,23.1-8.2,23.1-20.7c0-9.5-5-14.8-24.4-19.2c-20.5-4.5-29.7-10.6-29.7-25c0-15.7,12.7-26.3,28.9-26.3
		c21.5,0,31.1,17.7,31.1,20.2c0,1.3-0.6,4.2-4.2,4.2c-1.9,0-2.6-0.5-3.7-2.4c-6.5-10.3-15.2-13.7-23.9-13.7
		c-13.6,0-19.5,8.7-19.5,17.4c0,8.6,3.7,13.6,22.9,17.6c20.2,4.4,31,10.5,31,27.3c0,17.3-13.7,29-31.8,29
		C46.1,220.8,33.8,198.2,33.8,194.9z"/>
	<path class="st2" d="M191.1,154.8c0-14.8-12.7-25.3-30.3-25.3c-4.2,0-17.1,0.8-26.3,9.7c-1,0.8-2.1,1.9-3.7,1.9
		c-1.3,0-3.9-1.1-3.9-4c0-6.3,14.8-16,33.6-16c17.7,0,39,8.7,39,35v43.2c0,5.8,1.1,11.6,1.6,13.9c0.6,2.3,0.6,2.4,0.6,3.4
		c0,2.3-1.3,4.2-3.5,4.2c-3.9,0-5.5-4.5-6.8-13.2c-6.5,6-14,13.2-30.7,13.2c-15.5,0-37.3-8.2-37.3-31.3c0-20.5,18.2-32.8,38.2-32.8
		c4,0,16.3,0,29.4,9.5v-11.4L191.1,154.8L191.1,154.8z M191.1,177.1c0-2.1-9.8-12.3-28.2-12.3c-20.3,0-31.3,12.1-31.3,24.8
		c0,14.5,13.6,23.1,28.7,23.1c21.9,0,30.7-16.5,30.8-18.2V177.1z"/>
	<path class="st2" d="M291.8,123.4c2.1-1.8,3.1-2.3,4.5-2.3c2.1,0,4,1.9,4,3.7c0,2.1-1,3.2-2.3,4.2l-44.9,36.1
		c3.5,1.3,5.6,3.5,8.4,6l44.7,41.6c0.5,0.3,1.9,1.9,1.9,4c0,2.3-1.9,3.9-3.7,3.9c-1.9,0-2.4-0.5-4.5-2.4l-44-42.3
		c-2.4-2.3-5.5-4.7-10.2-4.8l-8.6,6.9v38.6c0,2.1-1.8,4-4.2,4s-3.9-2.3-3.9-4V91.8c0-1.9,1.6-4,4.2-4c2.4,0,3.9,2.3,3.9,4v76
		L291.8,123.4z"/>
	<path class="st2" d="M330.9,125.3c0-2.1,1.6-4.2,4.2-4.2c2.4,0,3.9,2.3,3.9,4.2v61.2c0,14.4,11.5,26.1,24,26.1
		c20.2,0,31.6-21.5,31.8-23.1v-64.2c0-2.1,1.5-4.2,4-4.2c2.4,0,4,2.3,4,4.2v79.4c0,1.9,1.5,10.5,1.5,12.1c0,2.1-1.8,3.9-3.9,3.9
		c-4.8,0-5.2-6.6-5.6-17.7c-12.6,17.7-28.4,17.7-31.8,17.7c-16.3,0-32.1-12.3-32.1-34.2V125.3z"/>
</g>
<path class="st3" d="M464.1,247.6c-0.9,1.5-2.7,3.3-5.2,3.3c-2.4,0-4.9-1.8-4.9-4.9c0-1.2,0.3-2.1,0.9-3L570.7,3.3
	c0.9-1.5,2.7-3.3,5.2-3.3c2.4,0,4.9,1.8,4.9,4.9c0,1.2-0.3,2.1-0.9,3L464.1,247.6z"/>
<g>
	<path class="st4" d="M694,52.3c0,1.1-0.7,5.1-4.3,5.1c-2.9,0-4.2-1.9-5.5-4.3c-6.1-11.5-14.6-24.2-37.5-24.2
		c-22.7,0-35.6,12.5-35.6,29.3c0,16.4,13.3,22.5,39.9,29.3c15.9,4,48.4,12.3,48.4,43.4c0,22.5-19.6,44.4-52.6,44.4
		c-40.1,0-54.9-30.9-54.9-44.1c0-2.5,1.7-5.1,4.9-5.1c3.8,0,4.9,2,6.1,7c7.2,29.5,34,32.6,44.3,32.6c27.4,0,41.8-18,41.8-34
		c0-22.5-23.5-29.1-33.7-32.2c-35.2-10.1-39.5-13.8-43.7-17.4c-4-3.4-10.4-11-10.4-24.6c0-20.8,16.1-38.1,45.8-38.1
		C683,19.4,694,46.9,694,52.3z"/>
	<path class="st4" d="M747.7,127.9l-14.2,42c-0.6,1.6-1.9,5.5-5.5,5.5c-0.7,0-4.9-0.4-4.9-5.1c0-0.7,0-1.7,0.4-2.9l47.7-138.7
		c2-5.9,7.9-9.5,12.8-9.5c7,0,11.7,4.7,13.4,9.5L845,167.4c0.4,1,0.4,1.9,0.4,2.6c0,2.6-1.1,5.3-4.7,5.3s-4.9-3-5.6-5.5l-14.2-42
		L747.7,127.9L747.7,127.9z M817.8,118.2l-28-82.7c-2-5.9-4-6.2-5.5-6.2c-2,0-3.8,1.7-5.3,6.2l-28,82.7H817.8z"/>
	<path class="st4" d="M885.3,101.9V170c0,2.6-1.9,5.1-5.3,5.1c-3.2,0-4.7-2.9-4.7-5.1V24.4c0-3.2,2.5-5.1,5.1-5.1
		c3.6,0,4.9,3.2,4.9,5.1v64.9l81.7-68c1.1-1,2.6-1.9,4.3-1.9c2.5,0,4.9,2.5,4.9,4.9c0,2.9-1.9,4.5-2.9,5.3l-69.5,57
		c7.8,1.7,13.3,7.4,16.1,10.8l57.1,69.5c1,1.1,1.3,2.5,1.3,3.8c0,2.3-1.6,4.7-4.3,4.7c-3,0-4.2-1.6-5.1-2.6l-58.5-71.1
		c-2-2.5-6.6-6.8-14.6-8.5L885.3,101.9z"/>
	<path class="st4" d="M1099.7,24.5c0-2.5,1.3-5.1,5.1-5.1c4.5,0,4.7,4.5,4.7,5.1v99.8c0,44.1-38.8,51.1-51.9,51.1
		c-19.6,0-52.5-11.1-52.5-51.1V24.5c0-1.1,0.4-5.1,5.1-5.1c4,0,4.9,3.4,4.9,5.1v99.8c0,26.1,19.6,41.2,41.8,41.2
		c28.4,0,42.6-20.5,42.6-41.2V24.5H1099.7z"/>
</g>
<path class="st3" d="M1128.8,247.6c-0.9,1.5-2.7,3.3-5.2,3.3c-2.4,0-4.9-1.8-4.9-4.9c0-1.2,0.3-2.1,0.9-3L1235.4,3.3
	c0.9-1.5,2.7-3.3,5.2-3.3c2.4,0,4.9,1.8,4.9,4.9c0,1.2-0.3,2.1-0.9,3L1128.8,247.6z"/>
<g class="st5">
	<path class="st6" d="M951.7,211.9h-3.3c-1.2,0-1.9-1.3-1.9-2.5s0.6-2.4,1.9-2.4h3.3V200c0-1.5,1.4-2.2,2.7-2.2
		c1.4,0,2.7,0.7,2.7,2.2v6.9h5.2c1.4,0,2,1.2,2,2.4c0,1.3-0.6,2.5-2,2.5h-5.2v19.4c0,1.8,1,2.9,2.7,2.9c0.8,0,1.7-0.2,2.8-0.6
		c0.3-0.1,0.5-0.1,0.7-0.1c1.2,0,1.9,1.1,1.9,2.2c0,0.8-0.4,1.7-1.4,2.2c-1.9,0.9-3.8,1.4-5.5,1.4c-3.8,0-6.7-2.4-6.7-6.9V211.9z"/>
	<path class="st6" d="M973.9,224.8c0.3,5.4,4.8,9.8,10.4,9.8c4.7,0,7.9-2.3,9.6-5.1c0.4-0.7,1.1-1.1,1.9-1.1c1.3,0,2.8,1,2.8,2.4
		c0,1.7-3.9,8.8-14.3,8.8c-9.4,0-15.7-7.3-15.7-16.6c0-10.1,6.7-16.9,15.6-16.9c8.2,0,14.5,5.9,15.3,14.4v0.5c0,2.3-1.3,3.9-4.1,3.9
		H973.9z M993.3,220.1c0.5,0,0.7-0.1,0.7-0.5c0-0.1-0.1-0.3-0.1-0.4c-0.9-5-4.9-8.2-9.8-8.2c-5.6,0-9.5,4-10.2,9.2H993.3z"/>
	<path class="st6" d="M1004.9,200.1c0-2,1.5-3.7,3.4-3.7c1.9,0,3.4,1.6,3.4,3.7c0,2-1.5,3.6-3.4,3.6
		C1006.4,203.7,1004.9,202.1,1004.9,200.1z M1005.6,208.8c0-1.5,1.4-2.2,2.8-2.2c1.3,0,2.7,0.7,2.7,2.2V237c0,1.5-1.4,2.3-2.7,2.3
		c-1.4,0-2.8-0.8-2.8-2.3V208.8z"/>
	<path class="st6" d="M1045.4,218.6c0,1.7-0.1,3.6-0.1,5.4c0,4.6,0.2,9.2,1.2,11.7c0.2,0.4,0.2,0.8,0.2,1.1c0,1.5-1.4,2.4-2.8,2.4
		c-1.1,0-2.9-0.6-3.1-4.3c-0.1-0.2-0.1-0.3-0.1-0.4c-2.2,3.3-6.9,5-11.1,5c-6.9,0-12.3-2.3-12.3-9.8c0-4,2.3-7.2,6.1-8.7
		c7.3-2.8,16.2-1.6,16.2-5.4v-0.3c-0.3-2.9-2.8-4.6-7.4-4.6h-0.8c-3.4,0.1-6.4,1.9-8,4.9c-0.6,0.9-1.4,1.3-2.3,1.3
		c-1.4,0-2.8-1.1-2.8-2.5c0-2.2,4.6-8.3,13.1-8.6h0.8c9.2,0,13,4.3,13,12.3V218.6z M1040.3,224.7c0-1.5,0.1-3.2,0.1-3.2
		c-2.7,2.3-9.2,1.9-14.5,4c-1.9,0.7-3.1,2.3-3.1,4.3c0,4.2,3.7,4.9,6.9,4.9h0.3c4.4,0,10.4-2.6,10.4-8.9V224.7z"/>
	<path class="st6" d="M1074.8,220.1c0-5.8-2.4-8.9-7.4-8.9c-5.5,0-9.4,4.3-9.4,10.2v15.5c0,1.5-1.3,2.3-2.6,2.3
		c-1.4,0-2.8-0.8-2.8-2.4v-28.2c0-1.6,1.3-2.3,2.6-2.3c1.3,0,2.6,0.7,2.6,2.2v2.9c1.3-3,5.6-5.4,9.7-5.4c8.6,0,12.7,5.1,12.7,14
		v16.9c0,1.5-1.3,2.3-2.7,2.3c-1.3,0-2.7-0.8-2.7-2.3V220.1z"/>
</g>
<g>
	<g>
		<defs>
			<polygon id="SVGID_3_" points="0,4.9 555.5,6.4 439.8,246.1 0,244.6 			"/>
		</defs>
		<clipPath id="SVGID_4_">
			<use xlink:href="#SVGID_3_"  style="overflow:visible;"/>
		</clipPath>
		<polygon class="st7" points="526.6,64.8 555.5,4.9 -10.2,4.9 -39.1,64.8 		"/>
	</g>
</g>
<g>
	<g>
		<defs>
			<polygon id="SVGID_5_" points="1257.2,6.4 1141.5,246.1 1257.2,246.1 			"/>
		</defs>
		<clipPath id="SVGID_6_">
			<use xlink:href="#SVGID_5_"  style="overflow:visible;"/>
		</clipPath>
		<polygon class="st8" points="1794.8,64.8 1823.7,4.9 1258,4.9 1229.1,64.8 		"/>
	</g>
</g>
</svg>
